<svg height="32" viewBox="0 0 32 32" width="32" xmlns="http://www.w3.org/2000/svg"><path d="m26.333.401h-20.667c-3.136 0-5.667 2.531-5.667 5.667v19.864c0 3.136 2.531 5.667 5.667 5.667h20.667c3.136 0 5.667-2.531 5.667-5.667v-19.864c0-3.136-2.531-5.667-5.667-5.667zm4.318 25.011c.016 2.676-2.151 4.853-4.823 4.853h-19.656c-2.667 0-4.839-2.172-4.839-4.839v-18.853c0-2.667 2.172-4.839 4.839-4.839h19.64c2.672 0 4.839 2.167 4.839 4.839zm-18-10.412 3.735 7.172c.068.109.027.213-.079.213h-2.323c-.145 0-.213-.036-.276-.172-.853-1.76-1.724-3.52-2.615-5.411h-.025c-.803 1.785-1.683 3.667-2.537 5.427-.061.104-.129.145-.239.145h-2.199c-.135 0-.145-.109-.077-.187l3.651-6.959-3.531-7.041c-.084-.109 0-.188.077-.188h2.292c.135 0 .188.027.24.145.843 1.761 1.692 3.573 2.495 5.349h.025c.776-1.76 1.631-3.588 2.453-5.333.068-.109.109-.177.24-.177h2.145c.109 0 .151.084.084.188zm4.39 2.172c0-3.104 2.063-5.532 5.344-5.532.281 0 .427 0 .693.027v-3.531c0-.084.067-.136.135-.136h2.104c.109 0 .136.041.136.104v12.245c0 .359 0 .812.068 1.301 0 .084-.027.109-.109.152-1.12.531-2.292.771-3.412.771-2.896.015-4.959-1.771-4.959-5.401zm6.038-3.412c-.183-.077-.453-.135-.772-.135-1.681 0-2.853 1.296-2.853 3.443 0 2.453 1.197 3.437 2.708 3.437.317 0 .667-.036.917-.145z"/></svg>